<svg xmlns="http://www.w3.org/2000/svg" xmlns:xlink="http://www.w3.org/1999/xlink" width="19.081" height="19.081" viewBox="0 0 19.081 19.081"><defs><style>.a,.c,.e{fill:#232a5e;}.a,.b{clip-rule:evenodd;}.b,.f,.h{fill:#ec2024;}.c,.f{fill-rule:evenodd;}.d{clip-path:url(#a);}.g{clip-path:url(#b);}</style><clipPath id="a"><path class="a" d="M274.623,683.613a9.541,9.541,0,0,1-16.1,10.227l2.273-.609,5.84-1.565,1.434-.384a1.772,1.772,0,0,0,1.247-2.16h0a1.772,1.772,0,0,0-2.16-1.247l-.565-2.109a3.956,3.956,0,0,1,4.835,2.792h0a3.956,3.956,0,0,1-2.791,4.835l-5.765,1.545a7.357,7.357,0,0,0,9.533-10.729Z" transform="translate(-258.523 -683.613)"/></clipPath><clipPath id="b"><path class="b" d="M255.233,654.445a9.547,9.547,0,0,1,10.374,3.872l-2.273.609-5.741,1.538-1.533.411a1.764,1.764,0,0,0,.913,3.408l.565,2.109a3.948,3.948,0,0,1-2.044-7.626l5.765-1.545a7.357,7.357,0,0,0-9.533,10.728l-2.219.595a9.541,9.541,0,0,1,5.726-14.1Z" transform="translate(-248.161 -654.118)"/></clipPath></defs><g transform="translate(-248.161 -654.118)"><g transform="translate(249.796 658.772)"><path class="c" d="M274.623,683.613a9.541,9.541,0,0,1-16.1,10.227l2.273-.609,5.84-1.565,1.434-.384a1.772,1.772,0,0,0,1.247-2.16h0a1.772,1.772,0,0,0-2.16-1.247l-.565-2.109a3.956,3.956,0,0,1,4.835,2.792h0a3.956,3.956,0,0,1-2.791,4.835l-5.765,1.545a7.357,7.357,0,0,0,9.533-10.729Z" transform="translate(-258.523 -683.613)"/><g class="d" transform="translate(0 0)"><rect class="e" width="17.8" height="14.781" transform="translate(0 0)"/></g></g><g transform="translate(248.161 654.118)"><path class="f" d="M255.233,654.445a9.547,9.547,0,0,1,10.374,3.872l-2.273.609-5.741,1.538-1.533.411a1.764,1.764,0,0,0,.913,3.408l.565,2.109a3.948,3.948,0,0,1-2.044-7.626l5.765-1.545a7.357,7.357,0,0,0-9.533,10.728l-2.219.595a9.541,9.541,0,0,1,5.726-14.1Z" transform="translate(-248.161 -654.118)"/><g class="g" transform="translate(0 0)"><rect class="h" width="17.801" height="14.781" transform="translate(-0.354 -0.354)"/></g></g><path class="e" d="M297.332,698.584c.036-1.007-1.094-.792-1.348-.376a.722.722,0,0,0-.036.1l-.306.942a.6.6,0,0,1-.616-.063c-.178-.114-.259-.262-.22-.375l.505-1.482a.521.521,0,0,1,.5-.308l1.673-.25,2.1.859c-.044,0-.2,1.186-1.127,1.286s-1.941.276-1.941.276-.6-.164-.354-.411,1.176-.2,1.176-.2" transform="translate(-39.276 -35.926)"/><path class="h" d="M294.532,717.148c-.036,1.007,1.093.792,1.348.376a.722.722,0,0,0,.036-.1l.306-.942a.6.6,0,0,1,.616.063c.179.114.259.262.22.375l-.505,1.482a.521.521,0,0,1-.5.308l-1.8.25-1.975-.859c.044,0,.2-1.186,1.127-1.286s1.941-.276,1.941-.276.6.164.354.411-1.176.2-1.176.2" transform="translate(-37.161 -52.472)"/></g></svg>