<svg xmlns="http://www.w3.org/2000/svg" width="24.796" height="23.313" viewBox="0 0 24.796 23.313"><defs><style>.a{fill:#ec2024;}.b{fill:#fff;}</style></defs><g transform="translate(-186.482 -163.224)"><ellipse class="a" cx="12.398" cy="11.656" rx="12.398" ry="11.656" transform="translate(186.482 163.224)"/><g transform="translate(193.298 166.624)"><path class="b" d="M603.064,645.488a4.276,4.276,0,0,0,3.3,4.164,4.537,4.537,0,0,0,9.05-.446v-4.118a.792.792,0,0,0-1.583,0v4.118a2.953,2.953,0,0,1-5.859.521,4.28,4.28,0,0,0,3.86-4.593v-7.627a.287.287,0,0,0-.287-.287h-8.2a.287.287,0,0,0-.287.287v7.627c0,.077,0,.154,0,.23a.266.266,0,0,0,0,.047A.284.284,0,0,0,603.064,645.488Zm11.34-.4a.216.216,0,0,1,.431,0v4.118a3.961,3.961,0,0,1-7.887.524c.092.005.184.009.276.009h.16a3.53,3.53,0,0,0,7.019-.533Zm-3.15-3.263v3.31c0,2.334-1.513,4.029-3.6,4.029h-.431a3.437,3.437,0,0,1-3.148-1.99h1.661a.287.287,0,0,0,0-.575H604.06a.288.288,0,0,0-.19.073,4.658,4.658,0,0,1-.211-.973h2.966a.288.288,0,1,0,0-.576h-2.995v-1.1h2.11a.287.287,0,0,0,0-.575h-2.11v-.9h3a.288.288,0,1,0,0-.576h-3v-1.115h2.11a.287.287,0,0,0,0-.575h-2.11v-.9h3a.287.287,0,0,0,0-.575h-3V637.8h7.626Z" transform="translate(-603.053 -637.221)"/><g transform="translate(0.305 4.775)"><path class="b" d="M604.385,654.407h7.626a.284.284,0,0,0,0-.568h-7.626a.284.284,0,0,0,0,.568Z" transform="translate(-604.114 -653.839)"/></g></g></g></svg>