<svg xmlns="http://www.w3.org/2000/svg" width="31.367" height="31.367" viewBox="0 0 31.367 31.367"><defs><style>.a{fill:#ec2024;}.b{fill:#fff;}</style></defs><g transform="translate(-175.197 -152.197)"><circle class="a" cx="15.683" cy="15.683" r="15.683" transform="translate(175.197 152.197)"/><g transform="translate(181.845 159.41)"><path class="b" d="M731.135,812.12a.5.5,0,0,1-.5.5h-.533a.5.5,0,0,1-.5-.5v-1.1h-.569a.988.988,0,0,1-.137-.014v1.114a1.2,1.2,0,0,0,1.2,1.2h.532a1.2,1.2,0,0,0,1.2-1.2v-1.1h-.7Z" transform="translate(-728.126 -796.663)"/><path class="b" d="M772.526,810.842v1.387a.5.5,0,0,1-.5.5H771.5a.5.5,0,0,1-.5-.5v-1.387h-.7v1.387a1.2,1.2,0,0,0,1.2,1.2h.532a1.2,1.2,0,0,0,1.2-1.2v-1.486a.907.907,0,0,1-.406.1Z" transform="translate(-755.671 -796.487)"/><path class="b" d="M729.357,780.208v-3.835a.488.488,0,0,1,.466-.506H744.26a.488.488,0,0,1,.466.506v3.835h.3a.906.906,0,0,1,.406.1v-3.935a1.193,1.193,0,0,0-1.171-1.211h-.3v-1.78a1.223,1.223,0,0,0,.526.116.953.953,0,0,0,1.041-.856v-1.48a.953.953,0,0,0-1.038-.859h0a1.223,1.223,0,0,0-.526.116v-.87a1.324,1.324,0,0,0-1.2-1.417H731.319a1.324,1.324,0,0,0-1.2,1.417v.847a1.355,1.355,0,0,0-.5-.092.99.99,0,0,0-1.1.859v1.475a.99.99,0,0,0,1.1.859,1.368,1.368,0,0,0,.5-.091v1.756h-.3a1.193,1.193,0,0,0-1.171,1.211v3.847a.87.87,0,0,1,.138-.014Zm14.8-9.047c0-.047.126-.154.335-.154s.334.106.334.154v1.476c0,.047-.126.154-.334.154s-.335-.107-.335-.154Zm-13.331-1.614c0-.386.227-.712.5-.712h11.444c.268,0,.5.326.5.712v5.615H730.824Zm-.811,3.091c-.006.036-.14.154-.392.154s-.387-.118-.393-.154v-1.477c.005-.036.139-.154.393-.154s.386.118.392.154Z" transform="translate(-727.871 -768.131)"/><path class="b" d="M743.729,804.224H727.493a.87.87,0,0,0-.138.014.917.917,0,0,0-.781.9v.443a.918.918,0,0,0,.781.9.989.989,0,0,0,.137.014h16.236a.906.906,0,0,0,.406-.1.916.916,0,0,0,.512-.819v-.443a.929.929,0,0,0-.918-.918Zm.4,1.361a.4.4,0,0,1-.4.4H727.493a.4.4,0,0,1-.4-.4v-.443a.4.4,0,0,1,.4-.4h16.236a.4.4,0,0,1,.4.4Z" transform="translate(-726.575 -792.147)"/><path class="b" d="M748.243,773.337h-9.424a.811.811,0,0,0-.811.81V776.9a.812.812,0,0,0,.811.811h9.424a.812.812,0,0,0,.811-.811v-2.755A.811.811,0,0,0,748.243,773.337Zm.458,3.566a.459.459,0,0,1-.458.459h-9.424a.459.459,0,0,1-.458-.459v-2.755a.459.459,0,0,1,.458-.458h9.424a.458.458,0,0,1,.458.458Z" transform="translate(-734.183 -771.595)"/><path class="b" d="M738.475,794.582a1,1,0,1,0,1,1A1,1,0,0,0,738.475,794.582Zm0,1.645a.646.646,0,1,1,.646-.647h0a.648.648,0,0,1-.646.648Z" transform="translate(-733.829 -785.733)"/><path class="b" d="M766.581,794.582a1,1,0,1,0,1,1A1,1,0,0,0,766.581,794.582Zm0,1.645a.646.646,0,1,1,.646-.647h0a.647.647,0,0,1-.646.648Z" transform="translate(-752.533 -785.733)"/></g></g></svg>