<svg xmlns="http://www.w3.org/2000/svg" width="25.24" height="25.24" viewBox="0 0 25.24 25.24"><defs><style>.a{fill:#ec2024;}.b{fill:#fff;}</style></defs><g transform="translate(-109.261 -128.261)"><circle class="a" cx="12.62" cy="12.62" r="12.62" transform="translate(109.261 128.261)"/><g transform="translate(114.372 133.569)"><path class="b" d="M604.183,515.237v-.682a1.86,1.86,0,0,0-1.972-1.716h-3.429a1.859,1.859,0,0,0-1.972,1.716v.682h-2.127a1.7,1.7,0,0,0-1.694,1.695v7.759a1.7,1.7,0,0,0,1.694,1.695h11.629a1.7,1.7,0,0,0,1.695-1.695v-7.759a1.7,1.7,0,0,0-1.695-1.695Zm3.125,9.454a1,1,0,0,1-1,1H594.682a1,1,0,0,1-1-1v-7.759a1,1,0,0,1,1-1h11.629a1,1,0,0,1,1,1Zm-8.526-11.153h3.43a1.17,1.17,0,0,1,1.275,1.018v.682h-1.019v-.3a1.082,1.082,0,0,0-1.137-1.012h-1.666a1.082,1.082,0,0,0-1.137,1.012v.3h-1.019v-.682A1.168,1.168,0,0,1,598.781,513.538Zm2.988,1.7h-2.545v-.3c0-.171.2-.314.44-.314h1.666c.238,0,.439.144.439.314Z" transform="translate(-592.989 -512.84)"/><path class="b" d="M616.3,533.625h-1.541v-1.541a.21.21,0,0,0-.209-.209h-1.777a.209.209,0,0,0-.209.209h0v1.54h-1.541a.209.209,0,0,0-.209.209h0v1.777a.209.209,0,0,0,.209.209h1.541v1.541a.209.209,0,0,0,.209.209h1.777a.209.209,0,0,0,.209-.209v-1.539h1.54a.209.209,0,0,0,.209-.209h0v-1.777a.209.209,0,0,0-.207-.21Zm-.209,1.777h-1.541a.209.209,0,0,0-.209.209h0v1.541h-1.358v-1.541a.21.21,0,0,0-.209-.209h-1.54v-1.357h1.541a.209.209,0,0,0,.209-.209h0v-1.54h1.358v1.541a.209.209,0,0,0,.209.209h1.541Z" transform="translate(-606.017 -526.751)"/></g></g></svg>