<svg xmlns="http://www.w3.org/2000/svg" width="56.5" height="52.839" viewBox="0 0 56.5 52.839"><defs><style>.a{fill:#d3d3d3;}</style></defs><g transform="translate(-251 -1753.172)"><path class="a" d="M392.911,540.9a1.061,1.061,0,0,0-.656.981v11.435l-13.521,13.521h-8.019a1.063,1.063,0,0,0-.954,1.53l6.7,13.675c-.143.176-.276.35-.4.517-.852,1.159-1.6,1.772-2.16,1.772s-1.286-.6-2.15-1.772a1.062,1.062,0,0,0-1.711,1.259c.833,1.132,2.139,2.637,3.861,2.637s3.039-1.505,3.871-2.638c.853-1.159,1.6-1.771,2.161-1.771s1.285.6,2.15,1.772c.832,1.132,2.139,2.637,3.861,2.637s3.04-1.505,3.872-2.638c.852-1.159,1.6-1.771,2.162-1.771s1.285.6,2.149,1.771a6.276,6.276,0,0,0,2.911,2.484,1.062,1.062,0,1,0,.656-2.021,4.592,4.592,0,0,1-1.856-1.722c-.833-1.132-2.139-2.637-3.86-2.637s-3.04,1.505-3.872,2.637c-.853,1.159-1.6,1.772-2.162,1.772s-1.286-.6-2.15-1.772c-.832-1.132-2.138-2.637-3.86-2.637a3.406,3.406,0,0,0-1.856.594l-5.661-11.554h47.666l-5.573,11.376a7.554,7.554,0,0,0-2.318,2.221c-.853,1.159-1.6,1.772-2.161,1.772s-1.285-.6-2.15-1.772c-1.244-1.692-2.394-2.526-3.618-2.627a3.791,3.791,0,0,0-2.988,1.307,1.062,1.062,0,1,0,1.484,1.519,1.909,1.909,0,0,1,1.331-.709c.379.03,1.047.363,2.082,1.769.833,1.132,2.139,2.637,3.86,2.637s3.039-1.505,3.872-2.638c.852-1.159,1.6-1.771,2.161-1.771s1.285.6,2.149,1.772c.833,1.132,2.139,2.637,3.861,2.637s3.039-1.505,3.872-2.638a1.062,1.062,0,0,0-1.711-1.258c-.852,1.159-1.6,1.772-2.161,1.772s-1.285-.6-2.15-1.772a6.528,6.528,0,0,0-2.92-2.484l5.735-11.708a1.062,1.062,0,0,0-.954-1.529h-2.012l-25.707-25.707A1.06,1.06,0,0,0,392.911,540.9Zm-.656,25.936H381.738l10.517-10.517Zm2.124-13.081v-9.31l22.392,22.391H394.379Z" transform="translate(-118.653 1212.352)"/><path class="a" d="M436.648,566.125l-.854-.854a1.062,1.062,0,0,0-1.5,1.5l.854.855a1.062,1.062,0,1,0,1.5-1.5Z" transform="translate(-156.219 1198.255)"/><path class="a" d="M447.744,577.222,442.527,572a1.062,1.062,0,1,0-1.5,1.5l5.218,5.219a1.062,1.062,0,0,0,1.5-1.5Z" transform="translate(-160.151 1194.323)"/><path class="a" d="M399.769,619.17a3.043,3.043,0,1,0,3.042-3.043A3.046,3.046,0,0,0,399.769,619.17Zm3.961,0a.919.919,0,1,1-.919-.919A.919.919,0,0,1,403.73,619.17Z" transform="translate(-136.24 1168.374)"/><path class="a" d="M429.554,616.127a3.043,3.043,0,1,0,3.043,3.043A3.046,3.046,0,0,0,429.554,616.127Zm0,3.961a.919.919,0,1,1,.919-.919A.919.919,0,0,1,429.554,620.088Z" transform="translate(-151.857 1168.374)"/><path class="a" d="M459.34,619.17a3.043,3.043,0,1,0-3.043,3.043A3.046,3.046,0,0,0,459.34,619.17Zm-3.961,0a.918.918,0,1,1,.918.919A.92.92,0,0,1,455.379,619.17Z" transform="translate(-167.475 1168.374)"/><path class="a" d="M440.089,644.641a1.063,1.063,0,0,0,1.5.049c.092-.086.183-.178.277-.274a1.062,1.062,0,0,0-1.528-1.475q-.1.105-.2.2A1.062,1.062,0,0,0,440.089,644.641Z" transform="translate(-159.618 1152.905)"/><path class="a" d="M489.65,654.537a1.063,1.063,0,0,0-1.486.226c-.852,1.159-1.6,1.771-2.16,1.771s-1.285-.6-2.15-1.772c-1.226-1.666-2.357-2.5-3.56-2.621a1.062,1.062,0,0,0-.214,2.113c.377.039,1.04.376,2.063,1.768.833,1.132,2.139,2.637,3.861,2.637s3.039-1.505,3.872-2.637A1.063,1.063,0,0,0,489.65,654.537Z" transform="translate(-182.582 1147.346)"/><path class="a" d="M473.689,657.731a1.058,1.058,0,0,0,.813-.378c.046-.054.092-.107.138-.158a1.062,1.062,0,1,0-1.58-1.419c-.061.067-.122.137-.182.208a1.062,1.062,0,0,0,.812,1.746Z" transform="translate(-178.788 1145.426)"/><path class="a" d="M404.209,658.205a3.254,3.254,0,0,0,1.6.446c1.922,0,3.33-1.914,3.867-2.644.852-1.159,1.6-1.771,2.162-1.771s1.284.6,2.149,1.771c.833,1.132,2.139,2.637,3.861,2.637s3.04-1.505,3.872-2.637c.852-1.159,1.6-1.771,2.161-1.771s1.284.6,2.15,1.771c1.23,1.673,2.366,2.506,3.574,2.623a3.716,3.716,0,0,0,2.879-1.157,1.062,1.062,0,0,0-1.439-1.563c-.713.657-1.107.62-1.236.606-.377-.036-1.042-.372-2.068-1.768-.832-1.132-2.139-2.637-3.86-2.637s-3.04,1.506-3.872,2.638c-.852,1.159-1.6,1.771-2.161,1.771s-1.285-.6-2.15-1.772c-.833-1.132-2.139-2.637-3.861-2.637s-3.039,1.506-3.871,2.637c-1.628,2.214-2.369,1.8-2.725,1.6a1.062,1.062,0,1,0-1.035,1.854Z" transform="translate(-138.515 1147.36)"/><path class="a" d="M400.488,659.01a1.063,1.063,0,0,0,.228-1.485c-.062-.084-.124-.166-.185-.245a1.062,1.062,0,0,0-1.686,1.294c.052.067.1.138.157.209a1.061,1.061,0,0,0,1.485.228Z" transform="translate(-135.573 1144.585)"/><path class="a" d="M378.028,656c1.58-2.149,2.308-1.8,2.619-1.657a1.062,1.062,0,1,0,.909-1.919c-2.621-1.243-4.591,1.437-5.239,2.317-.852,1.159-1.6,1.771-2.16,1.771s-1.285-.6-2.15-1.772A1.062,1.062,0,0,0,370.3,656c.833,1.132,2.139,2.637,3.861,2.637S377.2,657.136,378.028,656Z" transform="translate(-118.907 1147.364)"/></g></svg>