<svg xmlns="http://www.w3.org/2000/svg" width="44.132" height="37.817" viewBox="0 0 44.132 37.817"><defs><style>.a{fill:#dedede;}</style></defs><g transform="translate(-186 -1045.575)"><path class="a" d="M97.634,778.419h41.391a1.371,1.371,0,0,0,1.371-1.372V747.869a1.37,1.37,0,0,0-1.371-1.37h-11.1v-4.527a1.37,1.37,0,0,0-1.372-1.369H115.216a1.37,1.37,0,0,0-1.371,1.369V746.5h-4.977v-.527a1.37,1.37,0,0,0-1.371-1.37H103.66a1.369,1.369,0,0,0-1.371,1.37v.527H97.634a1.37,1.37,0,0,0-1.371,1.37v29.178A1.371,1.371,0,0,0,97.634,778.419Zm18.955-35.076h8.591V746.5h-8.591ZM99,749.239h38.648v26.437H99Z" transform="translate(89.737 304.973)"/><path class="a" d="M118.178,747.951a10.573,10.573,0,1,0,10.572,10.574A10.587,10.587,0,0,0,118.178,747.951Zm0,18.4a7.831,7.831,0,1,1,7.831-7.831A7.84,7.84,0,0,1,118.178,766.356Z" transform="translate(95.979 309.018)"/><path class="a" d="M116.425,751.135a5.637,5.637,0,1,0,5.637,5.637A5.642,5.642,0,0,0,116.425,751.135Zm0,8.533a2.9,2.9,0,1,1,2.895-2.9A2.9,2.9,0,0,1,116.425,759.668Z" transform="translate(97.731 310.77)"/><path class="a" d="M108.138,747.079H100.46a1.371,1.371,0,0,0-1.372,1.371v4.632a1.371,1.371,0,0,0,1.372,1.371h7.678a1.371,1.371,0,0,0,1.371-1.371V748.45A1.371,1.371,0,0,0,108.138,747.079Zm-1.372,4.631h-4.935v-1.888h4.935Z" transform="translate(91.292 308.538)"/></g></svg>