<svg xmlns="http://www.w3.org/2000/svg" width="51.027" height="37.063" viewBox="0 0 51.027 37.063"><defs><style>.a{fill:#d3d3d3;}</style></defs><g transform="translate(-103 -1761.58)"><path class="a" d="M75.407,904.664a3.117,3.117,0,1,0-3.118-3.117A3.12,3.12,0,0,0,75.407,904.664Zm0-4.316a1.2,1.2,0,1,1-1.2,1.2A1.2,1.2,0,0,1,75.407,900.349Z" transform="translate(39.072 889.013)"/><path class="a" d="M146.867,898.43a3.117,3.117,0,1,0,3.118,3.117A3.121,3.121,0,0,0,146.867,898.43Zm0,4.316a1.2,1.2,0,1,1,1.2-1.2A1.2,1.2,0,0,1,146.867,902.746Z" transform="translate(-5.54 889.013)"/><path class="a" d="M99.834,845.712c-1.152-1.958-3.1-2.951-5.79-2.951H86.956C85.7,840.133,80.225,829.6,73.178,829.6H51a.958.958,0,0,0-.958.958v21.021c0,5.339,0,7.393,3.439,7.843a8.082,8.082,0,0,0,16.064.116h3.708a.959.959,0,1,0,0-1.918H69.54a8.081,8.081,0,0,0-16.035-.1c-1.515-.19-1.55-.937-1.55-5.936v-3.031H65a.959.959,0,1,0,0-1.918H51.955V844.68H94.045a4.358,4.358,0,0,1,4.1,1.948H72.865a.959.959,0,0,0,0,1.918h26a14.4,14.4,0,0,1,.276,3.031c0,3.684-.123,5.5-2.788,5.8a8.082,8.082,0,0,0-16.017.243H76.414a.959.959,0,0,0,0,1.918H80.34a8.081,8.081,0,0,0,16.074-.242c4.648-.444,4.65-4.295,4.65-7.718A11.372,11.372,0,0,0,99.834,845.712Zm-38.319,6.7a6.165,6.165,0,1,1-6.165,6.165A6.171,6.171,0,0,1,61.515,852.412Zm4.508-9.65H51.955V831.515H66.023Zm1.918,0V831.515h5.236c5.315,0,9.963,8,11.632,11.247Zm20.423,21.981a6.165,6.165,0,1,1,6.165-6.166A6.173,6.173,0,0,1,88.364,864.742Z" transform="translate(52.963 931.983)"/><path class="a" d="M96.436,874.925a.959.959,0,0,0,0,1.918h1.823a.959.959,0,0,0,0-1.918Z" transform="translate(24.596 903.686)"/></g></svg>