<svg xmlns="http://www.w3.org/2000/svg" width="21" height="22.445" viewBox="0 0 21 22.445"><defs><style>.a{fill:#ec2024;}</style></defs><g transform="translate(-805.029 -671.715)"><path class="a" d="M824.516,684.27c-1.281-1.1-3.184-1.567-5.662-1.4a6.11,6.11,0,1,0-7.106-.169c-1.789-.177-5.556-.045-6.7,3.924a.489.489,0,0,0-.018.128V693.7a.464.464,0,0,0,.464.464h20.072a.464.464,0,0,0,.464-.464v-6.608c0-.009,0-.017,0-.027A4.288,4.288,0,0,0,824.516,684.27Zm-14.333-6.446a5.237,5.237,0,1,1,5.261,5.236h-.05A5.242,5.242,0,0,1,810.183,677.824Zm5.145,7.1h.448l.663,1.368-.907,1.762-.676-1.329Zm-.551-.931a.312.312,0,0,1,.312-.311h.881a.312.312,0,1,1,0,.624h-.881A.312.312,0,0,1,814.777,683.99Zm1.63.816a.926.926,0,0,0,.492-.816.909.909,0,0,0-.033-.232,6,6,0,0,0,1.062-.367l-1.137,2.209Zm-1.7.032-.276,1.053-1.2-2.365a5.93,5.93,0,0,0,.946.28.926.926,0,0,0,.533,1.032Zm10.391,8.393H805.957v-6.408c1.162-3.875,5.342-3.306,6.326-3.114l2.832,5.571a.463.463,0,0,0,.413.254h0a.464.464,0,0,0,.413-.252l2.815-5.472c2.294-.184,4.022.2,5.139,1.15A3.364,3.364,0,0,1,825.1,687.1Z"/></g></svg>