<svg xmlns="http://www.w3.org/2000/svg" width="28.173" height="18.692" viewBox="0 0 28.173 18.692"><defs><style>.a{fill:#ec2024;}</style></defs><g transform="translate(-66.522 -1747)"><path class="a" d="M765.718,500.634c.006-.167.106-4.121-2.372-6.391a.488.488,0,0,0-.627-.027c-.028.022-2.911,2.188-5.6,0a.488.488,0,0,0-.628.011,7.3,7.3,0,0,0-1.531,2.105.49.49,0,0,0-.491.06c-.118.089-2.926,2.178-5.6,0a.485.485,0,0,0-.455-.086,6.488,6.488,0,0,0-1.481-2.068.487.487,0,0,0-.626-.027c-.029.022-2.911,2.188-5.6,0a.488.488,0,0,0-.628.011,8.815,8.815,0,0,0-2.548,6.385.488.488,0,0,0,.488.494l7.832,0a10.491,10.491,0,0,0-.164,1.686.491.491,0,0,0,.141.35.486.486,0,0,0,.347.145l10.794,0a.487.487,0,0,0,.487-.471,10.085,10.085,0,0,0-.125-1.706l7.882,0A.488.488,0,0,0,765.718,500.634Zm-19.628-.5h-7.549a8.209,8.209,0,0,1,1.923-4.888,5.53,5.53,0,0,0,6.087-.019,5.892,5.892,0,0,1,1.119,1.808A8.8,8.8,0,0,0,746.091,500.132Zm.608,2.179a8.21,8.21,0,0,1,1.923-4.888,5.531,5.531,0,0,0,6.087-.019,8.125,8.125,0,0,1,1.78,4.905Zm10.456-2.179a7.918,7.918,0,0,0-1.45-3.065,7.516,7.516,0,0,1,1.161-1.823,5.529,5.529,0,0,0,6.087-.019,8.132,8.132,0,0,1,1.781,4.905Z" transform="translate(-671.025 1262.406)"/><path class="a" d="M760.242,481.54a4.612,4.612,0,0,0-4.572,4.011,4.6,4.6,0,0,0-6.936-.478,4.8,4.8,0,0,0-.337.379,4.613,4.613,0,1,0-4.556,5.319h0a4.581,4.581,0,0,0,3.261-1.354,4.687,4.687,0,0,0,.338-.379A4.619,4.619,0,0,0,752,492.949h0a4.612,4.612,0,0,0,4.57-4.01,4.607,4.607,0,0,0,3.673,1.831h0a4.615,4.615,0,0,0,0-9.23Zm-13.828,7.188a3.616,3.616,0,0,1-2.572,1.068h0a3.647,3.647,0,1,1,2.573-1.068Zm8.157,2.179A3.614,3.614,0,0,1,752,491.974h0a3.646,3.646,0,1,1,2.573-1.067Zm8.245-2.179a3.616,3.616,0,0,1-2.572,1.068h0a3.647,3.647,0,1,1,2.573-1.068Z" transform="translate(-671.433 1265.46)"/></g></svg>