<svg xmlns="http://www.w3.org/2000/svg" width="19.903" height="21.731" viewBox="0 0 19.903 21.731"><defs><style>.a{fill:#ec2024;}</style></defs><g transform="translate(-351.481 -733.932)"><path class="a" d="M369.148,746.32l-2.015,1.484-2.014-1.484a.235.235,0,0,0-.332.332l2.107,1.593v1.575a.235.235,0,0,0,.469,0v-1.567l2.116-1.6a.235.235,0,1,0-.331-.332Z" transform="translate(-5.613 -5.224)"/><path class="a" d="M353.629,734.765a2.838,2.838,0,0,0,2.007,4.845h0a2.839,2.839,0,1,0-2.008-4.845Zm4.095,2.005a2.091,2.091,0,0,1-2.087,2.089h0a2.088,2.088,0,1,1,2.088-2.089Z" transform="translate(-0.558)"/><path class="a" d="M351.857,748.136H358.3a.375.375,0,0,0,.375-.364,5.53,5.53,0,0,0-1.443-3.879.375.375,0,0,0-.483-.021,2.688,2.688,0,0,1-3.234,0,.376.376,0,0,0-.484.008,5.355,5.355,0,0,0-1.549,3.873.376.376,0,0,0,.376.381Zm1.462-3.473a3.366,3.366,0,0,0,3.609-.008,4.757,4.757,0,0,1,.984,2.728l-5.661,0A4.752,4.752,0,0,1,353.319,744.663Z" transform="translate(0 -4.18)"/><path class="a" d="M377.7,739.61h0a2.838,2.838,0,1,0-2.839-2.838A2.819,2.819,0,0,0,377.7,739.61Zm-1.476-4.314a2.086,2.086,0,1,1,1.476,3.563h0a2.086,2.086,0,0,1-1.476-3.563Z" transform="translate(-9.915)"/><path class="a" d="M380.74,747.771a5.53,5.53,0,0,0-1.443-3.879.375.375,0,0,0-.483-.021,2.688,2.688,0,0,1-3.234,0,.376.376,0,0,0-.484.008,5.353,5.353,0,0,0-1.549,3.873.375.375,0,0,0,.375.381h6.441A.375.375,0,0,0,380.74,747.771Zm-6.423-.386a4.74,4.74,0,0,1,1.069-2.722,3.365,3.365,0,0,0,3.608-.008,4.758,4.758,0,0,1,.984,2.728Z" transform="translate(-9.358 -4.18)"/><path class="a" d="M366.82,754.259a2.839,2.839,0,1,0,0,5.678h0a2.839,2.839,0,0,0,0-5.678Zm1.476,4.314a2.072,2.072,0,0,1-1.475.613h0a2.091,2.091,0,1,1,1.476-.613Z" transform="translate(-5.301 -8.62)"/><path class="a" d="M363.041,768.463h6.441a.375.375,0,0,0,.375-.363,5.53,5.53,0,0,0-1.443-3.88.376.376,0,0,0-.483-.021,2.687,2.687,0,0,1-3.233,0,.376.376,0,0,0-.484.007,5.356,5.356,0,0,0-1.55,3.873.376.376,0,0,0,.376.381Zm1.462-3.473a3.366,3.366,0,0,0,3.609-.008,4.761,4.761,0,0,1,.984,2.728h-5.662A4.743,4.743,0,0,1,364.5,764.99Z" transform="translate(-4.743 -12.8)"/></g></svg>