<svg xmlns="http://www.w3.org/2000/svg" width="138" height="146.261" viewBox="0 0 138 146.261"><defs><style>.a{fill:#232a5e;}</style></defs><g transform="translate(-138 -460)"><path class="a" d="M426.8,158.256a12.679,12.679,0,1,0-12.676-12.679A12.691,12.691,0,0,0,426.8,158.256Zm0-20.927a8.249,8.249,0,1,1-8.242,8.249A8.256,8.256,0,0,1,426.8,137.328Z" transform="translate(-259.435 327.102)"/><path class="a" d="M452.814,158.256a12.679,12.679,0,1,0-12.676-12.679A12.69,12.69,0,0,0,452.814,158.256Zm0-20.927a8.249,8.249,0,1,1-8.245,8.249A8.256,8.256,0,0,1,452.814,137.328Z" transform="translate(-206.176 327.102)"/><path class="a" d="M532.485,157.521H507.2a10.2,10.2,0,0,1-7.173-2.971l-16.594-16.6a8.386,8.386,0,0,0-11.582,0l-16.591,16.6a10.089,10.089,0,0,1-7.176,2.971H422.8a14.178,14.178,0,0,0-14.16,14.163V208.62a8.2,8.2,0,0,0,8.188,8.188,8.1,8.1,0,0,0,3.778-.948v47.97a9.824,9.824,0,0,0,17.405,6.155,9.824,9.824,0,0,0,17.405-6.155v-82.8a8.031,8.031,0,0,1,2.355-5.7l19.867-19.974,19.87,19.974a8.023,8.023,0,0,1,2.352,5.7v82.8a9.824,9.824,0,0,0,17.405,6.155,9.826,9.826,0,0,0,17.408-6.155V215.86a8.1,8.1,0,0,0,3.776.948,8.2,8.2,0,0,0,8.191-8.188V171.684A14.178,14.178,0,0,0,532.485,157.521ZM425.023,173.756a2.215,2.215,0,1,0-4.43,0V208.62a3.757,3.757,0,0,1-7.514,0V171.684a9.74,9.74,0,0,1,9.726-9.729h12.987v43.805h-10.75Zm25.967,90.075a5.38,5.38,0,0,1-10.759,0v-42.9a2.215,2.215,0,1,0-4.43,0v42.9a5.38,5.38,0,0,1-10.759,0V210.19H450.99Zm3.644-91.629a12.444,12.444,0,0,0-3.644,8.831v24.727H440.222V161.954h7.865a14.481,14.481,0,0,0,10.308-4.272L469.873,146.2a8.078,8.078,0,0,0,1.974,3.324l2.669,2.681Zm46.02,0-25.669-25.8a3.763,3.763,0,0,1,0-5.311,3.845,3.845,0,0,1,5.317,0L496.9,157.682a14.655,14.655,0,0,0,10.305,4.272h7.865v43.805H504.3V181.032A12.447,12.447,0,0,0,500.655,172.2Zm29.593,91.629a5.38,5.38,0,0,1-10.759,0v-42.9a2.215,2.215,0,1,0-4.431,0v42.9a5.38,5.38,0,0,1-10.759,0V210.19h25.949Zm11.963-55.21a3.755,3.755,0,1,1-7.511,0V173.756a2.217,2.217,0,1,0-4.434,0l-.018,32H519.5V161.954h12.984a9.74,9.74,0,0,1,9.726,9.729Z" transform="translate(-270.645 332.697)"/></g></svg>