<svg xmlns="http://www.w3.org/2000/svg" width="25.715" height="21.166" viewBox="0 0 25.715 21.166"><defs><style>.a{fill:#ec2024;}</style></defs><g transform="translate(-64 -1560.264)"><path class="a" d="M433.595,478.171l-2.19,2.189c-.11-.016-.22-.026-.33-.034a3.724,3.724,0,0,0-3.818.719l-.038.034-.537.539a3.547,3.547,0,0,0-4.081-.228l-2.016-2.016-6.353,6.353,2.409,2.408a6.158,6.158,0,0,0,1.148,3.3,8.746,8.746,0,0,0,1.055,1.278c.5.5,1,1,1.5,1.5a1.454,1.454,0,0,0,.256,2.031,1.661,1.661,0,0,0,1.921.452.017.017,0,0,1,.019.007c.57.854,1.1,1.267,1.663,1.313.236.228.468.46.705.688a2.2,2.2,0,0,0,2.616.344,1.488,1.488,0,0,0,.614-.679c1.43,1.2,2.384,1.222,3.508-.461a.016.016,0,0,1,.019-.007,1.661,1.661,0,0,0,1.921-.452,1.469,1.469,0,0,0,.157-2.166c0-.006-.177-.23-.168-.23a1.339,1.339,0,0,0,1.06-.557,1.633,1.633,0,0,0-.074-2.206c.259-.261.522-.519.78-.781a8.718,8.718,0,0,0,1.055-1.279,6.161,6.161,0,0,0,1.148-3.3l2.408-2.408ZM419.229,491.8a5.861,5.861,0,0,1-1.519-2.591,4.556,4.556,0,0,1-.112-.664,4.793,4.793,0,0,1-.017-.568l-2.442-2.442,5.25-5.251,1.684,1.684.111.11-.007.018.814.067.053-.131a2.82,2.82,0,0,1,3.429.4l2.352,2.362a.633.633,0,0,1,0,.891l-.155.155a.631.631,0,0,1-.892,0l-2.405-2.417-.585.409.651.762.282.284-.83.83a.473.473,0,0,0-.127.219l-.041.043c-1.616,1.619-3.238,3.233-4.851,4.855A2.5,2.5,0,0,0,419.229,491.8Zm7.8,6.551a.8.8,0,0,1-.656.263,1.4,1.4,0,0,1-.836-.506l-.34-.338a5.12,5.12,0,0,0,.851-.6,1.5,1.5,0,0,0,.614.679,2.162,2.162,0,0,0,.513.21A.605.605,0,0,1,427.026,498.348Zm3.465-.325c-.36.424-.773.461-1.3-.028l-.243-.23a2.262,2.262,0,0,0,.327-.26c.3-.291.6-.587.9-.879l.1.1C430.768,497.22,430.833,497.621,430.491,498.023ZM433,496.709a.86.86,0,0,1-1.42.011l-.743-.743c.409-.4.819-.8,1.226-1.2l.691.69C433.2,495.916,433.276,496.337,433,496.709Zm1.018-2.944a.84.84,0,0,1-1.172.442,1.372,1.372,0,0,1-.124-.078c.394-.391.784-.784,1.175-1.176A.763.763,0,0,1,434.021,493.765Zm2.579-6.995a4.532,4.532,0,0,1-.018.568,4.4,4.4,0,0,1-.112.664,5.867,5.867,0,0,1-1.527,2.6c-1,1.049-2.043,2.054-3.067,3.078-1.074,1.075-2.145,2.154-3.228,3.22a1.405,1.405,0,0,1-.837.506.8.8,0,0,1-.655-.263.963.963,0,0,1-.156-.806,1.849,1.849,0,0,1,.517-.728c.49-.5.989-.994,1.484-1.49.241-.242.481-.484.718-.73.253-.261.991-.811.577-1.2-.38-.356-.925.331-1.154.561s-.483.484-.727.723c-1.137,1.11-2.259,2.237-3.424,3.317-.527.489-.94.452-1.3.028-.341-.4-.276-.8.22-1.3q1.932-1.936,3.868-3.869a.917.917,0,0,0,.37-.576c.025-.2-.05-.386-.26-.418a.751.751,0,0,0-.737.31q-2.277,2.276-4.553,4.551a.861.861,0,0,1-1.421-.011c-.272-.372-.2-.793.247-1.238q2.308-2.318,4.628-4.627c.252-.25.45-.532.141-.822s-.55-.032-.775.195q-1.779,1.787-3.566,3.565a2.436,2.436,0,0,1-.519.425.84.84,0,0,1-1.172-.442c-.191-.475.054-.776.355-1.076q2.959-2.949,5.9-5.914l.807.811a1.413,1.413,0,0,0,1.994,0l.155-.154a1.4,1.4,0,0,0,.048-1.941l-1.791-1.81h0l-.352-.354.478-.481a3.351,3.351,0,0,1,3.825-.358l.53-.529,1.683-1.684,5.251,5.251Z" transform="translate(-350.232 1082.093)"/></g></svg>