<svg xmlns="http://www.w3.org/2000/svg" width="17.575" height="29.243" viewBox="0 0 17.575 29.243"><defs><style>.a{fill:#ec2024;}</style></defs><g transform="translate(-59.329 -629.891)"><path class="a" d="M181.829,876.327a8.787,8.787,0,1,0-17.076,0,13.1,13.1,0,0,0,.96,3.418c.863,1.814,4.5,7.8,6.165,10.529-2.256.287-3.3,1.257-3.3,2.172,0,1.088,1.476,2.259,4.716,2.259s4.716-1.171,4.716-2.259c0-.915-1.047-1.884-3.3-2.172,1.668-2.728,5.3-8.714,6.165-10.529A13.133,13.133,0,0,0,181.829,876.327Zm-5.181,16.118c-.092.257-1.226.9-3.357.9-2.155,0-3.291-.66-3.359-.893.062-.225.987-.779,2.738-.89l.044.072a.678.678,0,0,0,1.155,0l.044-.072C175.641,891.673,176.566,892.215,176.648,892.445Zm3.857-16.417c0,.018-.007.035-.01.053a12.111,12.111,0,0,1-.85,3.08c-.872,1.83-4.85,8.366-6.354,10.821-1.5-2.455-5.482-8.991-6.354-10.821a12.116,12.116,0,0,1-.849-3.08c0-.018-.007-.035-.011-.053a7.43,7.43,0,1,1,14.428,0Z" transform="translate(-105.175 -235.57)"/><path class="a" d="M174.111,870.083a4.716,4.716,0,1,0,4.716,4.715A4.721,4.721,0,0,0,174.111,870.083Zm0,8.073a3.358,3.358,0,1,1,3.359-3.358A3.362,3.362,0,0,1,174.111,878.156Z" transform="translate(-105.996 -236.345)"/></g></svg>