<svg xmlns="http://www.w3.org/2000/svg" xmlns:xlink="http://www.w3.org/1999/xlink" width="111.357" height="111.36" viewBox="0 0 111.357 111.36"><defs><style>.a{fill:#232a5e;}.b{clip-path:url(#a);}.c{fill:#ec2024;}.d{clip-path:url(#b);}</style><clipPath id="a"><path d="M495.388,454.35a55.679,55.679,0,0,1-93.958,59.686L414.7,510.48l34.079-9.132,8.37-2.244a10.345,10.345,0,0,0,7.278-12.608h0a10.345,10.345,0,0,0-12.608-7.278l-3.3-12.309A23.089,23.089,0,0,1,476.734,483.2h0a23.09,23.09,0,0,1-16.291,28.216L426.8,520.435a42.935,42.935,0,0,0,55.634-62.612Z" transform="translate(-401.43 -454.35)"/></clipPath><clipPath id="b"><path d="M414.042,374.672a55.717,55.717,0,0,1,60.545,22.6l-13.267,3.556L427.812,409.8l-8.943,2.4a10.3,10.3,0,0,0,5.33,19.89l3.3,12.309a23.04,23.04,0,0,1-11.926-44.51l33.643-9.016a42.935,42.935,0,0,0-55.634,62.612l-12.955,3.473a55.681,55.681,0,0,1,33.414-82.285Z" transform="translate(-372.772 -372.762)"/></clipPath></defs><g transform="translate(-151.555 -323.559)"><g transform="translate(161.097 350.722)"><path class="a" d="M495.388,454.35a55.679,55.679,0,0,1-93.958,59.686L414.7,510.48l34.079-9.132,8.37-2.244a10.345,10.345,0,0,0,7.278-12.608h0a10.345,10.345,0,0,0-12.608-7.278l-3.3-12.309A23.089,23.089,0,0,1,476.734,483.2h0a23.09,23.09,0,0,1-16.291,28.216L426.8,520.435a42.935,42.935,0,0,0,55.634-62.612Z" transform="translate(-401.43 -454.35)"/><g class="b" transform="translate(0 0)"><rect class="a" width="103.886" height="86.264" transform="translate(-0.003)"/></g></g><g transform="translate(151.555 323.559)"><path class="c" d="M414.042,374.672a55.717,55.717,0,0,1,60.545,22.6l-13.267,3.556L427.812,409.8l-8.943,2.4a10.3,10.3,0,0,0,5.33,19.89l3.3,12.309a23.04,23.04,0,0,1-11.926-44.51l33.643-9.016a42.935,42.935,0,0,0-55.634,62.612l-12.955,3.473a55.681,55.681,0,0,1,33.414-82.285Z" transform="translate(-372.772 -372.762)"/><g class="d"><rect class="c" width="103.886" height="86.264" transform="translate(-2.071 -2.068)"/></g></g><path class="a" d="M516.561,501.321c.21-5.876-6.382-4.624-7.867-2.194a4.264,4.264,0,0,0-.21.609l-1.788,5.5a3.472,3.472,0,0,1-3.592-.37c-1.042-.666-1.512-1.528-1.285-2.191l2.947-8.646a3.04,3.04,0,0,1,2.893-1.795l9.762-1.462,12.255,5.014c-.256.013-1.172,6.925-6.579,7.5s-11.33,1.611-11.33,1.611-3.5-.959-2.068-2.4,6.862-1.182,6.862-1.182" transform="translate(-307.261 -127.922)"/><path class="c" d="M507.924,549.339c-.21,5.876,6.382,4.625,7.867,2.194a4.269,4.269,0,0,0,.21-.609l1.788-5.5a3.472,3.472,0,0,1,3.592.37c1.042.666,1.512,1.528,1.285,2.191l-2.946,8.646a3.04,3.04,0,0,1-2.893,1.795l-10.491,1.462-11.526-5.014c.256-.013,1.172-6.925,6.579-7.5s11.33-1.611,11.33-1.611,3.5.959,2.068,2.4-6.862,1.182-6.862,1.182" transform="translate(-302.624 -164.164)"/></g></svg>