<svg xmlns="http://www.w3.org/2000/svg" width="169.74" height="157.715" viewBox="0 0 169.74 157.715"><defs><style>.a{fill:#2fa881;}.b{fill:#10204c;}.c{fill:#e60019;}</style></defs><g transform="translate(-122 -235)"><g transform="translate(-27.491 -1531.816)"><path class="a" d="M235.934,1891.1a80.209,80.209,0,0,1-12.72,9.785,117.437,117.437,0,0,0,12.641,10.738,98.518,98.518,0,0,0,12.67-10.539A90.412,90.412,0,0,1,235.934,1891.1Z"/></g><path class="b" d="M316.976,1860.7A48.31,48.31,0,0,0,293,1832.077c-20.394-10.628-41.988-5.482-60.132,7.159a120.038,120.038,0,0,1,12.651,10.737c1.547-.952,3.1-1.824,4.65-2.607,12.76-6.435,24.7-6.851,35.494-1.22a32.489,32.489,0,0,1,16.161,19.264,34.348,34.348,0,0,1-2.6,26.442,31.352,31.352,0,0,1-28.4,16.8c-7.812-.129-15.229-3.005-22.308-7.565a90.412,90.412,0,0,1-12.591-9.984,209.364,209.364,0,0,1-15.14-15.943c-.307-.357-.545-.654-.733-.892a95.631,95.631,0,0,1,12.73-14.505,91.074,91.074,0,0,0-12.6-9.984,114.043,114.043,0,0,0-13.266,15.6,17.117,17.117,0,0,0-2.637,5.036,12.583,12.583,0,0,0-.357,1.438c-1.23,6.662,3.222,11.788,4.9,13.712,4.62,5.324,9.4,10.549,14.386,15.327a117.437,117.437,0,0,0,12.641,10.738c10.43,7.614,21.861,12.681,34.72,12.889h.784a47.209,47.209,0,0,0,41.889-25.233A50.13,50.13,0,0,0,316.976,1860.7Z" transform="translate(-27.491 -1531.816)"/><path class="c" d="M264.8,1879.013a14.331,14.331,0,0,1-.347,1.438l-.01.009a17.562,17.562,0,0,1-2.637,5.027,113,113,0,0,1-13.276,15.6,90.412,90.412,0,0,1-12.591-9.984,94.682,94.682,0,0,0,12.73-14.505c-.188-.238-.426-.526-.733-.883a211.571,211.571,0,0,0-15.14-15.952,91.074,91.074,0,0,0-12.6-9.984c-7.079-4.561-14.495-7.426-22.3-7.555-.169,0-.347-.01-.516-.01a31.422,31.422,0,0,0-27.879,16.8,34.307,34.307,0,0,0-2.6,26.443,32.507,32.507,0,0,0,16.161,19.273c10.787,5.622,22.734,5.215,35.494-1.219q2.334-1.174,4.66-2.618a117.437,117.437,0,0,0,12.641,10.738c-11.362,7.932-24.093,12.909-37.021,12.909a49.555,49.555,0,0,1-23.111-5.741,48.275,48.275,0,0,1-23.974-28.623,50.08,50.08,0,0,1,3.728-38.578,47.159,47.159,0,0,1,42.673-25.232c12.859.208,24.29,5.264,34.72,12.879a120.038,120.038,0,0,1,12.651,10.737c4.987,4.8,9.756,10.014,14.376,15.328C261.573,1867.234,266.025,1872.35,264.8,1879.013Z" transform="translate(-27.491 -1531.816)"/><circle class="b" cx="27.521" cy="27.521" r="27.521" transform="translate(174.438 235)"/></g></svg>