<svg xmlns="http://www.w3.org/2000/svg" width="115.332" height="115.242" viewBox="0 0 115.332 115.242"><defs><style>.a{fill:#232a5e;}</style></defs><g transform="translate(-149.334 -168.36)"><path class="a" d="M430.671,131.361c-1.3-1.088-2.835-1.175-4.866-.656a5.069,5.069,0,0,0-2.184-5.543c-1.144-.879-2.59-.954-4.45-.519v-8.6a15.631,15.631,0,0,0-12.992-15.433l-11.584-2a7.55,7.55,0,0,1-6.033-5.594l-.894-3.53c5.779-4.647,9.592-12.554,9.592-21.507,0-13.227-8.667-22.112-21.562-22.112s-21.565,8.885-21.565,22.112c0,8.948,3.806,16.846,9.577,21.5l-.891,3.539a7.559,7.559,0,0,1-6.038,5.594l-11.581,2a15.634,15.634,0,0,0-12.994,15.433v4.825H319.263a1.75,1.75,0,0,0-1.749,1.747V154.05a1.749,1.749,0,0,0,1.749,1.747h14.414a125.887,125.887,0,0,0,36.385,5.317c17.977,0,39.741-4.005,58.519-18.89.418-.288,4.1-2.924,4.26-6.384A5.4,5.4,0,0,0,430.671,131.361ZM332.207,152.3h-11.2V124.367h11.2Zm89.29-24.366c.942.723.966,1.293.973,1.48.031.848-.721,2.071-1.956,3.236-.387.161-.757.32-1.17.493a130.617,130.617,0,0,1-20.712,7.167,6.289,6.289,0,0,0,.329-1.672,12.865,12.865,0,0,0-.125-2.693,115.719,115.719,0,0,0,14.234-5.276C416.271,129.3,420.656,127.414,421.5,127.935ZM387.691,98.542a11.094,11.094,0,0,0,3.95,2.766c1.792.435,3.628.67,5.373,1.271l8.568,1.48a12.144,12.144,0,0,1,10.1,11.987v9.748c-1.2.471-2.518,1.038-3.984,1.668a113.4,113.4,0,0,1-13.977,5.173,7.3,7.3,0,0,0-1.038-1.341,8.428,8.428,0,0,0-5.92-2.266,103.756,103.756,0,0,1-13.311-.413V108.336l.074.067a5.086,5.086,0,0,1,1.2-3.431c.029-.031.046-.07.077-.1l-.238-.209Zm-11.992,3.83-10.1-6.759a11.212,11.212,0,0,0,.613-1.74l.591-2.345a18.112,18.112,0,0,0,17.78.007l.589,2.338a11.464,11.464,0,0,0,.61,1.74ZM357.63,67.984a22.213,22.213,0,0,1,1.264-7.626c.058.031.132.067.195.1a10.723,10.723,0,0,1,1.624-3.09c-.1-.05-.221-.111-.308-.159,3.032-4.95,8.4-7.84,15.293-7.84,10.973,0,18.069,7.307,18.069,18.616,0,12.34-8.109,22.384-18.069,22.384S357.63,80.325,357.63,67.984ZM335.7,116.046A12.142,12.142,0,0,1,345.8,104.059l8.638-1.492c1.636-.512,3.376-.6,4.94-1.319a1.234,1.234,0,0,1,.656-.094,11.04,11.04,0,0,0,3.659-2.612l9.145,6.12-.3.26a.976.976,0,0,1,.634.581,7.587,7.587,0,0,1,.6,2.984l.18-.159v19.7a16.662,16.662,0,0,1-5.132-2.17c-3.888-2.283-8.342-4.854-33.114-4.974Zm90.8,23.371c-35.733,28.326-82.805,15.779-90.8,13.357V124.369c23.862.108,27.831,2.439,31.341,4.5,3.6,2.112,6.728,3.931,23.845,3.652a4.816,4.816,0,0,1,3.318,1.245c.968.975,1.4,2.542,1.264,4.664-.031.517-.127,2.074-3.2,3.309-.026.01-.1.043-.113.046-3.273,1.276-10.481,2.362-26.238.324a1.748,1.748,0,1,0-.449,3.467,124.018,124.018,0,0,0,15.608,1.165q7.814,0,12.16-1.643h.022a130.2,130.2,0,0,0,27.451-8.734c3.582-1.523,6.963-2.948,7.713-2.323.865.726.942,1.278.927,1.634C429.285,137.152,427.285,138.868,426.5,139.418Z" transform="translate(-168.18 122.488)"/><path class="a" d="M322.317,83.7a1.747,1.747,0,1,0-1.744-1.747A1.746,1.746,0,0,0,322.317,83.7Z" transform="translate(-163.889 170.648)"/></g></svg>