<svg xmlns="http://www.w3.org/2000/svg" width="19" height="18.999" viewBox="0 0 19 18.999"><defs><style>.a{fill:#ec2024;}</style></defs><g transform="translate(-59 -1024.377)"><path class="a" d="M420.7,104.905h5.374v5.374a.557.557,0,0,0,.557.558h6.021a.557.557,0,0,0,.558-.558v-5.374h5.374a.557.557,0,0,0,.558-.557v-6.02a.558.558,0,0,0-.558-.558h-5.374V92.4a.557.557,0,0,0-.558-.558h-6.021a.557.557,0,0,0-.557.558V97.77H420.7a.558.558,0,0,0-.558.558v6.02A.557.557,0,0,0,420.7,104.905Zm.557-6.02h5.374a.558.558,0,0,0,.558-.558V92.954h4.9v5.374a.558.558,0,0,0,.558.558h5.374v4.9h-5.374a.558.558,0,0,0-.558.558v5.374h-4.9v-5.374a.558.558,0,0,0-.558-.558h-5.374Z" transform="translate(-361.137 932.539)"/></g></svg>