<svg xmlns="http://www.w3.org/2000/svg" width="57.027" height="32.714" viewBox="0 0 57.027 32.714"><defs><style>.a{fill:#d3d3d3;}</style></defs><g transform="translate(-102 -1883.199)"><path class="a" d="M1063.957,572.875a1.071,1.071,0,0,0-.89-.474H1051.1v-5.96a1.072,1.072,0,0,0-1.072-1.071h-34.815a1.072,1.072,0,0,0-1.072,1.071v26.24a1.073,1.073,0,0,0,1.072,1.073h3.207a5.4,5.4,0,0,0,10.59,0h3.611a1.072,1.072,0,0,0,0-2.144h-3.611a5.4,5.4,0,0,0-10.59,0h-2.135v-24.1h32.673v24.1h-12.52a1.072,1.072,0,1,0,0,2.144h15.821a5.4,5.4,0,0,0,10.59,0h7.246a1.074,1.074,0,0,0,1.073-1.073v-8.746a1.075,1.075,0,0,0-.183-.6Zm-40.238,16.547a3.259,3.259,0,1,1-3.258,3.259A3.262,3.262,0,0,1,1023.719,589.422Zm33.839,6.517a3.259,3.259,0,1,1,3.258-3.259A3.261,3.261,0,0,1,1057.558,595.939Zm11.469-4.33h-6.174a5.4,5.4,0,0,0-10.59,0H1051.1V574.544H1062.5l6.53,9.717Z" transform="translate(-912.145 1317.83)"/><path class="a" d="M1026.654,591.509h3.11a1.072,1.072,0,0,0,0-2.143h-3.11a1.072,1.072,0,1,0,0,2.143Z" transform="translate(-918.78 1303.909)"/><path class="a" d="M1061.227,589.366h-18.438a1.072,1.072,0,1,0,0,2.143h18.438a1.072,1.072,0,0,0,0-2.143Z" transform="translate(-928.14 1303.909)"/><path class="a" d="M1082.406,603.865H1079.3a1.072,1.072,0,1,0,0,2.144h3.108a1.072,1.072,0,0,0,0-2.144Z" transform="translate(-949.319 1295.498)"/><path class="a" d="M1026.654,606.009h18.438a1.072,1.072,0,0,0,0-2.144h-18.438a1.072,1.072,0,1,0,0,2.144Z" transform="translate(-918.78 1295.498)"/><path class="a" d="M1114.777,591.6h-6.89a1.073,1.073,0,0,0-1.072,1.072v5.794a1.072,1.072,0,0,0,1.072,1.071h10.785a1.071,1.071,0,0,0,.89-1.67l-3.895-5.794A1.07,1.07,0,0,0,1114.777,591.6Zm-5.818,5.794v-3.65h5.247l2.454,3.65Z" transform="translate(-965.905 1302.61)"/></g></svg>