<svg xmlns="http://www.w3.org/2000/svg" width="34" height="25.216" viewBox="0 0 34 25.216"><defs><style>.a{fill:#ec2024;}.b{fill:#232a5e;}</style></defs><g transform="translate(-63 -480.327)"><g transform="translate(-742.029 -191.388)"><path class="a" d="M826.372,685.82c-1.4-1.234-3.488-1.76-6.2-1.569a6.91,6.91,0,0,0,2.929-5.673,6.694,6.694,0,1,0-13.383,0,6.917,6.917,0,0,0,2.67,5.482c-1.96-.2-6.086-.051-7.339,4.409a.562.562,0,0,0-.02.144v7.8a.515.515,0,0,0,.509.521h21.984a.515.515,0,0,0,.508-.521v-7.424c0-.01,0-.02,0-.03A4.867,4.867,0,0,0,826.372,685.82Zm-15.7-7.241a5.737,5.737,0,1,1,5.762,5.882h-.055A5.818,5.818,0,0,1,810.673,678.578Zm5.635,7.973h.49l.726,1.537-.993,1.979-.74-1.493Zm-.6-1.046a.346.346,0,0,1,.342-.35h.964a.35.35,0,0,1,0,.7h-.964A.347.347,0,0,1,815.705,685.506Zm1.785.917a1.033,1.033,0,0,0,.5-1.177,6.453,6.453,0,0,0,1.163-.412l-1.245,2.482Zm-1.859.036-.3,1.183-1.317-2.657a6.361,6.361,0,0,0,1.036.314,1.076,1.076,0,0,0-.021.207A1.047,1.047,0,0,0,815.632,686.459Zm11.381,9.429H806.046v-7.2c1.272-4.353,5.851-3.714,6.928-3.5l3.1,6.258a.506.506,0,0,0,.452.285h0a.507.507,0,0,0,.452-.283l3.083-6.148c2.512-.207,4.405.228,5.628,1.291a3.815,3.815,0,0,1,1.32,2.409Z" transform="translate(0)"/></g><g transform="translate(-747.762 -193.311)"><path class="b" d="M830.6,697.385l-3.838-8.135,1.317-.632,3,6.349,12.71-11.61.978,1.09Z"/></g></g></svg>